<?xml version="1.0" encoding="utf-8"?><svg xmlns="http://www.w3.org/2000/svg" xmlns:xlink="http://www.w3.org/1999/xlink"><symbol id="header-logo" viewBox="0 0 605.8 75"><style>.ast0{fill:#001d48}.ast1{fill:#ed1c24}</style><path class="ast0" d="M325.2 31.6c-.1-6.3-5.2-11.3-11.5-11.3h-17.3v-2.9h-11.5v2.9h-17.3c-6.3 0-11.4 5.1-11.5 11.3V52c0 6.3 5.2 11.5 11.5 11.5h17.3V75h11.5V63.4h17.3c6.3 0 11.5-5.1 11.5-11.5V31.6zm-40.3 20.3h-17.3V31.8h17.3v20.1zm28.8 0h-17.3V31.8h17.3v20.1zM86.4 17.4c-2.8 0-5.8 2.3-5.8 5.8v34.5-.5c0 3.2-2.5 6.2-5.7 6.2h-.1c-3.2 0-5.7 2.6-5.7 5.8V75h5.8c7.6 0 17.3-8.2 17.3-17.3V28.8h23V75h11.5V17.4H86.4zm-34.6 0h-46C2.6 17.4 0 20 0 23.2V75h11.5V28.9H46V75h11.5V23.2c.1-3.2-2.5-5.8-5.7-5.8zm195.6 0H190v5.9c0 3.1 2.5 5.5 5.5 5.5h17.6V75h11.3V28.8H242c2.9 0 5.3-2.4 5.3-5.3v-6.1zm-73.1 8.2l-2.1-4.8c-.9-2-2.9-3.5-5.3-3.5-2.5 0-4.6 1.6-5.4 3.7l-23.3 54h8.8c2.4 0 4.5-1.5 5.3-3.6l3.3-7.9h22.6l3.3 7.9c.9 2.1 2.9 3.6 5.4 3.6h8.8l-21.4-49.4zm-13.7 26.3l6.4-14.3 6.3 14.3h-12.7zM365.5 0c-15.9 0-28.9 12.9-28.9 28.9 0 15.9 12.9 28.9 28.9 28.9 15.9 0 28.9-12.9 28.9-28.9 0-16-13-28.9-28.9-28.9zm0 46.1c-9.5 0-17.3-7.7-17.3-17.3s7.7-17.3 17.3-17.3c9.5 0 17.3 7.7 17.3 17.3s-7.7 17.3-17.3 17.3z"/><path class="ast1" d="M388.5 63.5h-46c-3.2 0-5.8 2.6-5.8 5.8V75h57.6v-5.8c0-3.1-2.6-5.7-5.8-5.7z"/><path class="ast0" d="M461.7 28.8c-.1-6.3-5.2-11.3-11.5-11.3h-44.3V75h11.5V57.7h32.8c6.3 0 11.5-5 11.5-11.3V28.8zm-11.5 17.4h-32.8V29h32.8v17.2zm80.4-28.8c-3.7.1-6.8 1.9-8.8 4.7L505 41.9l-16.7-19.8c-2-2.8-5.2-4.6-8.8-4.7h-6.2V75h11.4V37.1l15.6 18.2c1.4 1.9 3.3 2.3 4.7 2.4 1.4.1 3.5-.7 4.7-2.4.5-.7 15.6-18.3 15.6-18.3v38h11.4V17.4h-6.1zm53.8 8.3l-2.1-4.8c-.9-2-2.9-3.5-5.3-3.5-2.5 0-4.6 1.6-5.4 3.7L548.2 75h8.8c2.4 0 4.5-1.5 5.3-3.6l3.3-7.9h22.6l3.3 7.9c.9 2.1 2.9 3.6 5.4 3.6h8.8l-21.3-49.3zM570.6 52l6.4-14.3 6.3 14.3h-12.7z"/></symbol><symbol id="icon-download" viewBox="0 0 32 30.7"><style>.bst0,.bst1{fill:none;stroke:#fff;stroke-linecap:round;stroke-miterlimit:10}.bst1{stroke-linejoin:round}</style><path class="bst0" d="M16 12.8v17"/><path class="bst1" d="M20.5 25.8l-4.6 4.4-4.4-4.4m0-6.5h-7s-4-.6-4-5.5 5-6 5-6-.4-2.3 1-3c2.6-1.4 4 1 4 1s3.1-6.9 9-5 5 8 5 8 7.1-.5 7 5.3c-.1 5.7-5 5.2-5 5.2h-6"/></symbol><symbol id="sec5-icon1" viewBox="0 0 66.7 129.8"><style>.cst0{fill:none;stroke:#00275a;stroke-width:3;stroke-miterlimit:10}</style><path class="cst0" d="M2 121.3V99.8s-1-7 5-11 13-4 13-4h28s6 0 11 5 5 11 5 11v21s-2 4-9 5-34.6 2.2-44 1c-8-1-9-7-9-7"/><path class="cst0" d="M19 84.8s-10-6-9-13 16-15 16-15 7-8 9-11-3-5-5-2-3 3-7 2-7-3-7-3-1 6-5 5-4-5-7-6-4-8 1-12 11-8 11-8v-6l8-4c2-1-4-8 0-10s12 7 12 7 17 4 25 22 2 37 2 37l-8.5 18.5"/></symbol><symbol id="sec5-icon2" viewBox="0 0 110.7 119.5"><style>.dst0{fill:none;stroke:#00275a;stroke-width:3;stroke-miterlimit:10}</style><path class="dst0" d="M63.3 72.8s-17-.1-25 0h-1.4c-7.2.1-7.1-6.7-7.1-6.7V48.2c0-2.1.7-3.7 1.6-4.9 1.5-1.8 3.7-2.8 6.1-2.7 5 0 18.2.1 22.9 0 5.9-.1 4.6 5.1 4.6 5.1v25.9s-4.8 4.6-7.5 7.3-1.1 4.8-1.1 4.8 2.9 10.4 4.1 13.4-2 5.4-2 5.4-2.5 1.1-6.1 2.4-4.1-2-4.1-2l-4.6-20.3s-.3-.8-2.4-.3-2.8-9-2.8-9m-1-22.2v-10m0 31.4v-6.9m28.3 2s15.4-.8 25.3 5.2 11.1 14.3 12.5 14.5 1-3.4 1-3.4V24.3s-.9-3.6-2.8 0-8.7 13.1-12.3 15.5c-8.5 5.6-23.8 3.8-23.8 3.8m38.9 21.2s4.6-5 4.6-8.3c0-5.5-4.6-8.1-4.6-8.1"/><path class="dst0" d="M92.5 73.7l4.9 28.8s.7 2.8-3.8 3.7c-4.5.8-69.4 11.7-69.4 11.7s-3.6.9-4.6-3.4-18-100.3-18-100.3-.8-2.7 2.2-3c3-.3 52.7-9.7 52.7-9.7l25.1 9.8L87 40.5"/><path class="dst0" d="M56.6 2.1l15 16.7 9.3-6.8M15.8 26.9l41.4-7.2M17.9 38.1l35.9-6.3m38.9 77.5v.7c0 2-1.7 3.7-3.7 3.7H51.2m-31.6.9h-3.5c-1.9 0-3.5-1.6-3.5-3.5v-34m.3-68.8s-1.2-4 3.9-3.8c5.1.2 24.3 0 24.3 0"/><path class="dst0" d="M64.2 4.5h24.3s3.5.2 3.4 5.3 0 28 0 28"/></symbol><symbol id="sec5-icon3" viewBox="0 0 103 103"><style>.est0,.est1{fill:none;stroke:#00275a;stroke-width:3;stroke-miterlimit:10}.est1{stroke-width:6;stroke-linecap:round}</style><circle class="est0" cx="51.5" cy="51.5" r="50"/><path class="est1" d="M39.9 73.5v-39s0-2.9 2.5-4.4c.7-.5 1.6-.6 2.5-.6h10.3c.6 0 1.1.1 1.7.3 2.5.8 9.1 3.7 10.1 11.7 2 16-20 15-20 15m-.1 0l18 17"/></symbol><symbol id="sec5-icon4" viewBox="0 0 86.5 94.5"><style>.fst0{fill:none;stroke:#00275a;stroke-width:3;stroke-miterlimit:10}</style><circle class="fst0" cx="66.8" cy="61.7" r="9.9"/><circle class="fst0" cx="66.8" cy="61.7" r="18.2"/><path class="fst0" d="M53.6 74.1l-5.3 15.2c-.2.5.3 1 .8.8l4.5-1.7c.5-.2 1 0 1.2.5l1.6 3.7c.2.4.8.4 1 0L61.9 79m17.7-4.9L85 89.3c.2.5-.3 1-.8.8l-4.5-1.7c-.5-.2-1 0-1.2.5l-1.6 3.7c-.2.4-.8.4-1 0L71.4 79M10.7 22.9h47.9M10.7 36.2h41.7M10.7 47.7h35.1M10.7 59.3H40M10.7 70.8h32.6M50 82.5H1.5V3h65v40.5"/></symbol><symbol id="sec5-icon5" viewBox="0 0 101.5 97.1"><style>.gst0{fill:none;stroke:#00275a;stroke-width:3;stroke-miterlimit:10}</style><path class="gst0" d="M77.7 95.2L51.8 81.4c-.8-.4-1.8-.4-2.6 0L23.1 94.9c-2.1 1.1-4.5-.7-4.1-3L24.1 63c.2-.9-.1-1.9-.8-2.5L2.4 39.8C.7 38.2 1.6 35.3 4 35l29.1-4.1c.9-.1 1.7-.7 2.2-1.6L48.4 3.1c1.1-2.1 4.1-2.1 5.1 0l12.8 26.4c.4.8 1.2 1.4 2.1 1.6l29 4.4c2.3.4 3.3 3.2 1.6 4.9L77.9 60.7c-.7.7-1 1.6-.8 2.5l4.8 29c.4 2.4-2.1 4.2-4.2 3z"/></symbol><symbol id="sec5-icon6" viewBox="0 0 96.5 100"><style>.hst0{stroke:#00275a;stroke-width:3;stroke-miterlimit:10}.hst0,.st1{fill:none}</style><path class="hst0" d="M95 82.5l-12.9 16H1.5v-97H95z"/><path class="hst0" d="M95 82.5H81.3V98M39 62.7V48.5s-13.4 1.7-14.2 15h-8.3V18.4h64.3v44.2h-43"/><path class="hst0" d="M17.5 35.5h33v-16m0 28H81"/></symbol></svg>