<?xml version="1.0" encoding="utf-8"?>
<!-- Generator: Adobe Illustrator 21.0.2, SVG Export Plug-In . SVG Version: 6.00 Build 0)  -->
<svg version="1.1" id="Layer_1" xmlns="http://www.w3.org/2000/svg" xmlns:xlink="http://www.w3.org/1999/xlink" x="0px" y="0px"
	 width="66.7px" height="129.8px" viewBox="0 0 66.7 129.8" style="enable-background:new 0 0 66.7 129.8;" xml:space="preserve">
<style type="text/css">
	.st0{fill:none;stroke:#00275A;stroke-width:3;stroke-miterlimit:10;}
</style>
<g>
	<path class="st0" d="M2,121.3V99.8c0,0-1-7,5-11s13-4,13-4h28c0,0,6,0,11,5s5,11,5,11v21c0,0-2,4-9,5s-34.6,2.2-44,1c-8-1-9-7-9-7"
		/>
	<path class="st0" d="M19,84.8c0,0-10-6-9-13s16-15,16-15s7-8,9-11s-3-5-5-2s-3,3-7,2s-7-3-7-3s-1,6-5,5s-4-5-7-6s-4-8,1-12
		s11-8,11-8v-6c0,0,6-3,8-4s-4-8,0-10s12,7,12,7s17,4,25,22s2,37,2,37l-8.5,18.5"/>
</g>
</svg>
