<?xml version="1.0" encoding="utf-8"?>
<!-- Generator: Adobe Illustrator 21.0.2, SVG Export Plug-In . SVG Version: 6.00 Build 0)  -->
<svg version="1.1" id="Layer_1" xmlns="http://www.w3.org/2000/svg" xmlns:xlink="http://www.w3.org/1999/xlink" x="0px" y="0px"
	 width="605.8px" height="75px" viewBox="0 0 605.8 75" style="enable-background:new 0 0 605.8 75;" xml:space="preserve">
<style type="text/css">
	.st0{fill:#001D48;}
	.st1{fill:#ED1C24;}
</style>
<path class="st0" d="M325.2,31.6c-0.1-6.3-5.2-11.3-11.5-11.3h-17.3v-2.9h-11.5v2.9h-17.3c-6.3,0-11.4,5.1-11.5,11.3h0V52h0
	c0,6.3,5.2,11.5,11.5,11.5h17.3v11.5h11.5V63.4h17.3c6.3,0,11.5-5.1,11.5-11.5h0L325.2,31.6L325.2,31.6z M284.9,51.9h-17.3V31.8
	h17.3V51.9z M313.7,51.9h-17.3V31.8h17.3V51.9z"/>
<path class="st0" d="M86.4,17.4c-2.8,0-5.8,2.3-5.8,5.8c0,0,0,32.7,0,34.5l0-0.5c0,3.2-2.5,6.2-5.7,6.2c0,0-0.1,0-0.1,0
	c-3.2,0-5.7,2.6-5.7,5.8c0,0,0,5.8,0,5.8c0.5,0,5.8,0,5.8,0c7.6,0,17.3-8.2,17.3-17.3V28.8l23,0l0,46.2h11.5v0V17.4H86.4z"/>
<path class="st0" d="M51.8,17.4h-46C2.6,17.4,0,20,0,23.2v51.8V75h11.5l0-46.1h34.5l0,46.1h11.5V23.2C57.6,20,55,17.4,51.8,17.4z"/>
<path class="st0" d="M247.4,17.4H190v5.9c0,3.1,2.5,5.5,5.5,5.5l17.6,0V75h11.3V28.8l17.6,0c2.9,0,5.3-2.4,5.3-5.3V17.4z"/>
<path class="st0" d="M174.3,25.6l-2.1-4.8l0,0c-0.9-2-2.9-3.5-5.3-3.5c-2.5,0-4.6,1.6-5.4,3.7l0,0L138.2,75c0,0,8.8,0,8.8,0
	c2.4,0,4.5-1.5,5.3-3.6l3.3-7.9l22.6,0c0,0,3.3,7.9,3.3,7.9c0.9,2.1,2.9,3.6,5.4,3.6c0,0,8.8,0,8.8,0L174.3,25.6z M160.6,51.9
	l6.4-14.3l6.3,14.3H160.6z"/>
<path class="st0" d="M365.5,0c-15.9,0-28.9,12.9-28.9,28.9c0,15.9,12.9,28.9,28.9,28.9c15.9,0,28.9-12.9,28.9-28.9
	C394.4,12.9,381.4,0,365.5,0z M365.5,46.1c-9.5,0-17.3-7.7-17.3-17.3s7.7-17.3,17.3-17.3c9.5,0,17.3,7.7,17.3,17.3
	S375.1,46.1,365.5,46.1z"/>
<path class="st1" d="M388.5,63.5h-45.8l0,0c-0.1,0-0.2,0-0.2,0c-3.2,0-5.8,2.6-5.8,5.8V75h57.6v-5.8
	C394.3,66.1,391.7,63.5,388.5,63.5z"/>
<path class="st0" d="M461.7,28.8c-0.1-6.3-5.2-11.3-11.5-11.3h-32.8h-11.5V75h11.5V57.7h32.8c6.3,0,11.5-5,11.5-11.3L461.7,28.8
	L461.7,28.8z M450.2,46.2h-32.8V29h32.8V46.2z"/>
<path class="st0" d="M530.6,17.4c-3.7,0.1-6.8,1.9-8.8,4.7L505,41.9l-16.7-19.8c-2-2.8-5.2-4.6-8.8-4.7c-0.1,0-6.2,0-6.2,0V75h11.4
	V37.1l15.6,18.2l0,0c1.4,1.9,3.3,2.3,4.7,2.4c1.4,0.1,3.5-0.7,4.7-2.4c0.5-0.7,15.6-18.3,15.6-18.3V75h11.4V17.4
	C536.7,17.4,530.7,17.4,530.6,17.4z"/>
<path class="st0" d="M584.4,25.7l-2.1-4.8l0,0c-0.9-2-2.9-3.5-5.3-3.5c-2.5,0-4.6,1.6-5.4,3.7l0,0L548.2,75c0,0,8.8,0,8.8,0
	c2.4,0,4.5-1.5,5.3-3.6l3.3-7.9l22.6,0c0,0,3.3,7.9,3.3,7.9c0.9,2.1,2.9,3.6,5.4,3.6c0,0,8.8,0,8.8,0L584.4,25.7z M570.6,52
	l6.4-14.3l6.3,14.3H570.6z"/>
</svg>
