<?xml version="1.0" encoding="utf-8"?>
<!-- Generator: Adobe Illustrator 21.0.2, SVG Export Plug-In . SVG Version: 6.00 Build 0)  -->
<svg version="1.1" id="Layer_1" xmlns="http://www.w3.org/2000/svg" xmlns:xlink="http://www.w3.org/1999/xlink" x="0px" y="0px"
	 width="86.5px" height="94.5px" viewBox="0 0 86.5 94.5" style="enable-background:new 0 0 86.5 94.5;" xml:space="preserve">
<style type="text/css">
	.st0{fill:none;stroke:#00275A;stroke-width:3;stroke-miterlimit:10;}
</style>
<g>
	<circle class="st0" cx="66.8" cy="61.7" r="9.9"/>
	<circle class="st0" cx="66.8" cy="61.7" r="18.2"/>
	<path class="st0" d="M53.6,74.1l-5.3,15.2c-0.2,0.5,0.3,1,0.8,0.8l4.5-1.7c0.5-0.2,1,0,1.2,0.5l1.6,3.7c0.2,0.4,0.8,0.4,1,0
		l4.5-13.6"/>
	<path class="st0" d="M79.6,74.1L85,89.3c0.2,0.5-0.3,1-0.8,0.8l-4.5-1.7c-0.5-0.2-1,0-1.2,0.5l-1.6,3.7c-0.2,0.4-0.8,0.4-1,0
		l-4.5-13.6"/>
	<line class="st0" x1="10.7" y1="22.9" x2="58.6" y2="22.9"/>
	<line class="st0" x1="10.7" y1="36.2" x2="52.4" y2="36.2"/>
	<line class="st0" x1="10.7" y1="47.7" x2="45.8" y2="47.7"/>
	<line class="st0" x1="10.7" y1="59.3" x2="40" y2="59.3"/>
	<line class="st0" x1="10.7" y1="70.8" x2="43.3" y2="70.8"/>
</g>
<path class="st0" d="M6.5,0"/>
<polyline class="st0" points="50,82.5 1.5,82.5 1.5,3 66.5,3 66.5,43.5 "/>
</svg>
