<?xml version="1.0" encoding="utf-8"?>
<!-- Generator: Adobe Illustrator 21.0.2, SVG Export Plug-In . SVG Version: 6.00 Build 0)  -->
<svg version="1.1" id="Layer_1" xmlns="http://www.w3.org/2000/svg" xmlns:xlink="http://www.w3.org/1999/xlink" x="0px" y="0px"
	 width="101.5px" height="97.1px" viewBox="0 0 101.5 97.1" style="enable-background:new 0 0 101.5 97.1;" xml:space="preserve">
<style type="text/css">
	.st0{fill:none;stroke:#00275A;stroke-width:3;stroke-miterlimit:10;}
</style>
<path class="st0" d="M77.7,95.2L51.8,81.4C51,81,50,81,49.2,81.4L23.1,94.9c-2.1,1.1-4.5-0.7-4.1-3L24.1,63c0.2-0.9-0.1-1.9-0.8-2.5
	L2.4,39.8C0.7,38.2,1.6,35.3,4,35l29.1-4.1c0.9-0.1,1.7-0.7,2.2-1.6L48.4,3.1c1.1-2.1,4.1-2.1,5.1,0l12.8,26.4
	c0.4,0.8,1.2,1.4,2.1,1.6l29,4.4c2.3,0.4,3.3,3.2,1.6,4.9L77.9,60.7c-0.7,0.7-1,1.6-0.8,2.5l4.8,29C82.3,94.6,79.8,96.4,77.7,95.2z"
	/>
</svg>
