<?xml version="1.0" encoding="utf-8"?>
<!-- Generator: Adobe Illustrator 21.0.2, SVG Export Plug-In . SVG Version: 6.00 Build 0)  -->
<svg version="1.1" id="Layer_1" xmlns="http://www.w3.org/2000/svg" xmlns:xlink="http://www.w3.org/1999/xlink" x="0px" y="0px"
	 width="110.7px" height="119.5px" viewBox="0 0 110.7 119.5" style="enable-background:new 0 0 110.7 119.5;" xml:space="preserve"
	>
<style type="text/css">
	.st0{fill:none;stroke:#00275A;stroke-width:3;stroke-miterlimit:10;}
</style>
<g>
	<path class="st0" d="M63.3,72.8c0,0-17-0.1-25,0c-0.5,0-1,0-1.4,0c-7.2,0.1-7.1-6.7-7.1-6.7s0-11.8,0-17.9c0-2.1,0.7-3.7,1.6-4.9
		c1.5-1.8,3.7-2.8,6.1-2.7c5,0,18.2,0.1,22.9,0c5.9-0.1,4.6,5.1,4.6,5.1v25.9c0,0-4.8,4.6-7.5,7.3s-1.1,4.8-1.1,4.8
		s2.9,10.4,4.1,13.4s-2,5.4-2,5.4s-2.5,1.1-6.1,2.4s-4.1-2-4.1-2l-4.6-20.3c0,0-0.3-0.8-2.4-0.3s-2.8-9-2.8-9"/>
	<line class="st0" x1="37.5" y1="51.1" x2="37.5" y2="41.1"/>
	<line class="st0" x1="37.5" y1="72.5" x2="37.5" y2="65.6"/>
	<path class="st0" d="M65.8,67.6c0,0,15.4-0.8,25.3,5.2s11.1,14.3,12.5,14.5s1-3.4,1-3.4l0-59.6c0,0-0.9-3.6-2.8,0
		s-8.7,13.1-12.3,15.5c-8.5,5.6-23.8,3.8-23.8,3.8"/>
	<path class="st0" d="M104.6,64.8c0,0,4.6-5,4.6-8.3c0-5.5-4.6-8.1-4.6-8.1"/>
	<path class="st0" d="M92.5,73.7l4.9,28.8c0,0,0.7,2.8-3.8,3.7c-4.5,0.8-69.4,11.7-69.4,11.7s-3.6,0.9-4.6-3.4S1.6,14.2,1.6,14.2
		s-0.8-2.7,2.2-3c3-0.3,52.7-9.7,52.7-9.7l25.1,9.8l5.4,29.2"/>
	<polyline class="st0" points="56.6,2.1 71.6,18.8 80.9,12 	"/>
	<line class="st0" x1="15.8" y1="26.9" x2="57.2" y2="19.7"/>
	<line class="st0" x1="17.9" y1="38.1" x2="53.8" y2="31.8"/>
	<path class="st0" d="M92.7,109.3v0.7c0,2-1.7,3.7-3.7,3.7H51.2"/>
	<path class="st0" d="M19.6,114.6h-3.5c-1.9,0-3.5-1.6-3.5-3.5v-34"/>
	<path class="st0" d="M12.9,8.3c0,0-1.2-4,3.9-3.8c5.1,0.2,24.3,0,24.3,0"/>
	<path class="st0" d="M64.2,4.5h24.3c0,0,3.5,0.2,3.4,5.3s0,28,0,28"/>
</g>
</svg>
